<?xml version="1.0" encoding="UTF-8" standalone="no"?><!DOCTYPE svg PUBLIC "-//W3C//DTD SVG 1.1//EN" "http://www.w3.org/Graphics/SVG/1.1/DTD/svg11.dtd"><!-- Generated by graphviz version 2.40.1 (20161225.0304)
 --><!-- Title: G Pages: 1 --><svg xmlns="http://www.w3.org/2000/svg" xmlns:xlink="http://www.w3.org/1999/xlink" width="670pt" height="188pt" viewBox="0.00 0.00 669.69 188.00">
<g id="graph0" class="graph" transform="scale(1 1) rotate(0) translate(4 184)">
<title>G</title>
<polygon fill="#ffffff" stroke="transparent" points="-4,4 -4,-184 665.6862,-184 665.6862,4 -4,4"/>
<!-- DependencyTree -->
<g id="node1" class="node">
<title>DependencyTree</title>
<ellipse fill="none" stroke="#000000" cx="340.149" cy="-162" rx="76.9695" ry="18"/>
<text text-anchor="middle" x="340.149" y="-157.8" font-family="Times,serif" font-size="14.00" fill="#000000">DependencyTree</text>
</g>
<!-- System.Runtime -->
<g id="node2" class="node">
<title>System.Runtime</title>
<ellipse fill="none" stroke="#000000" cx="75.149" cy="-90" rx="75.2982" ry="18"/>
<text text-anchor="middle" x="75.149" y="-85.8" font-family="Times,serif" font-size="14.00" fill="#000000">System.Runtime</text>
</g>
<!-- DependencyTree&#45;&gt;System.Runtime -->
<g id="edge1" class="edge">
<title>DependencyTree-&gt;System.Runtime</title>
<path fill="none" stroke="#000000" d="M289.6807,-148.2879C245.5183,-136.289 181.3114,-118.8441 134.6559,-106.1679"/>
<polygon fill="#000000" stroke="#000000" points="135.5479,-102.7835 124.9801,-103.539 133.7125,-109.5386 135.5479,-102.7835"/>
</g>
<!-- System.Collections -->
<g id="node3" class="node">
<title>System.Collections</title>
<ellipse fill="none" stroke="#000000" cx="254.149" cy="-90" rx="85.75" ry="18"/>
<text text-anchor="middle" x="254.149" y="-85.8" font-family="Times,serif" font-size="14.00" fill="#000000">System.Collections</text>
</g>
<!-- DependencyTree&#45;&gt;System.Collections -->
<g id="edge2" class="edge">
<title>DependencyTree-&gt;System.Collections</title>
<path fill="none" stroke="#000000" d="M319.3308,-144.5708C308.4255,-135.4408 294.8989,-124.1163 282.9995,-114.1539"/>
<polygon fill="#000000" stroke="#000000" points="284.9879,-111.254 275.0735,-107.5182 280.4943,-116.6213 284.9879,-111.254"/>
</g>
<!-- CommandLine -->
<g id="node4" class="node">
<title>CommandLine</title>
<ellipse fill="none" stroke="#000000" cx="427.149" cy="-90" rx="68.9428" ry="18"/>
<text text-anchor="middle" x="427.149" y="-85.8" font-family="Times,serif" font-size="14.00" fill="#000000">CommandLine</text>
</g>
<!-- DependencyTree&#45;&gt;CommandLine -->
<g id="edge3" class="edge">
<title>DependencyTree-&gt;CommandLine</title>
<path fill="none" stroke="#000000" d="M361.2092,-144.5708C372.3231,-135.3732 386.128,-123.9484 398.2302,-113.9328"/>
<polygon fill="#000000" stroke="#000000" points="400.8102,-116.3408 406.2826,-107.2687 396.3472,-110.948 400.8102,-116.3408"/>
</g>
<!-- System.Console -->
<g id="node6" class="node">
<title>System.Console</title>
<ellipse fill="none" stroke="#000000" cx="588.149" cy="-90" rx="73.5745" ry="18"/>
<text text-anchor="middle" x="588.149" y="-85.8" font-family="Times,serif" font-size="14.00" fill="#000000">System.Console</text>
</g>
<!-- DependencyTree&#45;&gt;System.Console -->
<g id="edge5" class="edge">
<title>DependencyTree-&gt;System.Console</title>
<path fill="none" stroke="#000000" d="M388.5546,-147.9468C429.3565,-136.101 487.8164,-119.1288 530.9283,-106.6124"/>
<polygon fill="#000000" stroke="#000000" points="532.0803,-109.9226 540.7079,-103.7732 530.1286,-103.2002 532.0803,-109.9226"/>
</g>
<!-- netstandard -->
<g id="node5" class="node">
<title>netstandard</title>
<ellipse fill="none" stroke="#000000" cx="427.149" cy="-18" rx="55.5966" ry="18"/>
<text text-anchor="middle" x="427.149" y="-13.8" font-family="Times,serif" font-size="14.00" fill="#000000">netstandard</text>
</g>
<!-- CommandLine&#45;&gt;netstandard -->
<g id="edge4" class="edge">
<title>CommandLine-&gt;netstandard</title>
<path fill="none" stroke="#000000" d="M427.149,-71.8314C427.149,-64.131 427.149,-54.9743 427.149,-46.4166"/>
<polygon fill="#000000" stroke="#000000" points="430.6491,-46.4132 427.149,-36.4133 423.6491,-46.4133 430.6491,-46.4132"/>
</g>
</g>
</svg>